<?xml version="1.0" standalone="no"?><!DOCTYPE svg PUBLIC "-//W3C//DTD SVG 1.1//EN" "http://www.w3.org/Graphics/SVG/1.1/DTD/svg11.dtd"><svg class="icon" width="200px" height="200.00px" viewBox="0 0 1024 1024" version="1.1" xmlns="http://www.w3.org/2000/svg"><path fill="#333333" d="M280.505625 938.808736 157.235091 938.808736c-15.759939 0-63.729463 0-63.729463-47.100738L76.893274 524.17939c-0.016373-47.855938 47.953152-47.855938 63.713091-47.855938l107.11253 0c12.382005 0 44.787042 0 57.761542 23.116487 59.125609-50.998511 111.480001-218.495316 111.480001-260.765025 0-7.827269-0.446162-16.677844-0.909719-25.989931-1.972934-39.761586-4.213975-84.832084 19.990287-110.262266 10.871605-11.432377 25.551956-17.229406 43.617403-17.229406 69.381184 0 111.731734 70.501704 117.707842 140.14997 6.333242 73.976852 5.497201 128.58047-2.468215 162.981978l259.279185 0c51.242058 0 92.927459 41.693588 92.927459 92.935646 0 32.242332-16.8559 60.619636-42.878576 75.803453 7.41283 14.055111 11.480472 29.676903 11.480472 44.966121 0 37.512359-23.230074 69.340251-55.658647 81.81947 8.013511 14.468526 12.479219 30.789237 12.479219 46.800909 0 33.590026-17.700127 62.560848-45.387723 77.330226 1.469468 6.601348 2.208295 13.250792 2.208295 19.884886l0 4.15667c0 46.411029-37.755905 84.166935-84.166935 84.166935L379.440915 916.189575c-12.918217 0-25.657356-3.1262-37.292348-8.955976C332.762803 938.808736 294.300816 938.808736 280.505625 938.808736zM140.606365 509.579881c-30.472012 0-30.472012 6.731308-30.472012 13.851473l16.612353 367.528608c0.016373 7.868201 0.016373 14.5903 30.488385 14.5903l123.269511 0c30.472012 0 30.472012-6.723122 30.472012-13.843286l0-59.880809 29.03529 32.559557c10.514471 11.781324 24.885783 18.544355 39.427988 18.544355l365.741915 0c28.069289 0 50.909483-22.840194 50.909483-50.909483l0-4.15667c0-7.534604-1.623987-15.532765-4.701069-23.124673l-6.812149-16.823154 17.342993-5.318122c22.344914-6.853082 37.349653-27.167756 37.349653-50.544163 0-17.960047-7.41283-35.133172-19.835767-47.336098l-28.133757-27.638477 39.427988-0.852414c28.515451-0.608867 51.720965-24.293289 51.720965-52.792367 0-15.954367-5.780657-31.138184-15.857153-43.049468l-16.864086-19.924795 25.178449-6.861268c22.929222-6.252401 38.940894-27.192316 38.940894-50.933019 0-34.31248-26.76969-61.083194-59.670008-61.083194L544.193213 421.582711l12.763698-24.350594c5.618974-10.726296 17.58654-48.668443 7.266497-169.047114-3.776-44.112684-29.42517-109.73424-84.563978-109.73424-11.618619 0-16.709567 3.937682-19.527752 6.892991-14.371312 15.110139-12.342096 55.902194-10.863419 85.692684 0.487094 9.905604 0.949628 19.315928 0.949628 27.638477 0 54.546314-64.005756 257.17629-142.252865 299.389718l-3.694135 1.997494-26.550703 0 0-16.628726c0-7.356548 0-13.851473-30.001291-13.851473L140.606365 509.581927z" /></svg>