<?xml version="1.0" standalone="no"?><!DOCTYPE svg PUBLIC "-//W3C//DTD SVG 1.1//EN" "http://www.w3.org/Graphics/SVG/1.1/DTD/svg11.dtd"><svg class="icon" width="200px" height="200.00px" viewBox="0 0 1024 1024" version="1.1" xmlns="http://www.w3.org/2000/svg"><path fill="#333333" d="M569.6 121.6a19.2 19.2 0 0 1 22.08-18.9824c16.384 2.048 51.5584 25.3056 68.8832 43.392 21.376 19.776 27.0464 52.3712 11.872 78.656l-35.1808 60.9408 0.192-0.0064C614.2784 334.1312 625.7984 358.4 672 358.4h150.0672c42.4128 0 76.8 34.3872 76.8 76.8a76.8 76.8 0 0 1-0.5696 9.2992l-45.2672 371.2A76.8 76.8 0 0 1 776.8 883.2H422.4c-42.4128 0-76.8-34.3872-76.8-76.8V435.2c0-40.2944 31.0336-73.344 70.5024-76.544L416 358.4c21.3632-4.9408 41.1072-20.6912 59.2384-47.2384l86.752-150.2528c0.352-0.608 0.704-1.2096 1.0752-1.792C569.6 144.8512 569.6 139.9488 569.6 121.6zM192 358.4h38.4c35.3472 0 64 28.6528 64 64v396.8c0 35.3472-28.6528 64-64 64h-38.4c-35.3472 0-64-28.6528-64-64V422.4c0-35.3472 28.6528-64 64-64z"  /></svg>